<svg width="50" height="50" viewBox="0 0 50 50" fill="none" xmlns="http://www.w3.org/2000/svg">
<circle cx="25" cy="25" r="25" fill="#00B4E5"/>
<path d="M36.0214 15.988C34.0882 16.2854 32.1578 16.5881 30.23 16.8961C27.8328 17.2952 25.401 17.4473 22.9728 17.3502C21.0683 17.2301 19.172 17.0031 17.293 16.6704C16.584 16.5563 15.8484 16.4394 15.1262 16.3359C14.8606 16.296 14.5765 16.2509 14.3003 16.2031C13.7532 16.1012 13.201 16.0294 12.646 15.988C12.4143 15.9742 12.183 16.0213 11.9752 16.1247C11.7674 16.2282 11.5904 16.3843 11.4617 16.5775C11.3376 16.7638 11.2652 16.9798 11.2521 17.2034C11.2391 17.4269 11.2858 17.6499 11.3874 17.8494C11.4967 18.0589 11.6544 18.2393 11.8475 18.3755C12.0405 18.5118 12.2633 18.6 12.4973 18.6328L17.3301 19.7188L19.9563 20.311C20.7662 20.4942 21.0185 20.8155 21.0185 21.6387C21.0452 24.8454 20.6215 28.0401 19.7598 31.129C19.2925 32.7647 18.7428 34.4057 18.2144 35.991C18.0126 36.5964 17.8081 37.2045 17.6089 37.8153C17.4612 38.1795 17.4425 38.5833 17.5558 38.9597C17.6543 39.2559 17.8429 39.514 18.0953 39.6977C18.3476 39.8815 18.651 39.9818 18.9632 39.9847C19.3002 40.0081 19.6355 39.9184 19.9159 39.7299C20.1962 39.5414 20.4058 39.2648 20.5113 38.9438C21.2813 36.9115 22.0479 34.8757 22.8108 32.8364L23.9925 29.7004C24.0243 29.6207 24.0562 29.5437 24.0987 29.4349L24.4758 28.5241L24.8528 29.4428C24.8953 29.5437 24.9298 29.6234 24.9617 29.7084L26.146 32.855C26.9107 34.8837 27.6764 36.9115 28.4429 38.9385C28.5121 39.1386 28.621 39.3227 28.7629 39.4799C28.9048 39.637 29.0769 39.764 29.269 39.8532C29.461 39.9424 29.6691 39.992 29.8807 39.9991C30.0923 40.0062 30.3032 39.9706 30.5008 39.8944C31.3293 39.5864 31.6772 38.7765 31.3638 37.879L31.324 37.7595C31.0585 37.0027 30.7929 36.2433 30.5274 35.4891C28.7615 30.5342 27.9145 26.0094 27.9384 21.6572C27.9384 20.8075 28.2039 20.4915 29.0244 20.3057L36.4834 18.6248C37.3331 18.4309 37.8111 17.8069 37.6916 17.0661C37.5721 16.3252 36.8498 15.8579 36.0214 15.988Z" fill="white"/>
<path d="M24.4997 15.9137C24.8896 15.912 25.2754 15.833 25.6345 15.6812C25.9937 15.5295 26.3192 15.3079 26.5922 15.0294C26.8663 14.7518 27.0826 14.4224 27.2285 14.0605C27.3743 13.6985 27.4469 13.3113 27.4419 12.9211C27.4419 12.535 27.3654 12.1528 27.2168 11.7965C27.0682 11.4402 26.8504 11.1169 26.5761 10.8453C26.3017 10.5737 25.9763 10.3591 25.6185 10.214C25.2608 10.069 24.8778 9.99629 24.4918 10.0001H24.4732C24.0852 9.99838 23.7007 10.0736 23.3419 10.2214C22.9832 10.3693 22.6573 10.5868 22.3832 10.8614C22.1091 11.136 21.8921 11.4623 21.7449 11.8213C21.5977 12.1803 21.5232 12.5649 21.5257 12.9529C21.5251 13.3437 21.6023 13.7306 21.7527 14.0912C21.9032 14.4518 22.1239 14.7789 22.402 15.0533C22.6775 15.3281 23.0048 15.5456 23.3648 15.6933C23.7249 15.841 24.1106 15.9159 24.4997 15.9137Z" fill="white"/>
</svg>
