<svg width="22" height="22" viewBox="0 0 22 22" fill="none" xmlns="http://www.w3.org/2000/svg">
<path opacity="0.7" fill-rule="evenodd" clip-rule="evenodd" d="M22 11C22 17.0751 17.0751 22 11 22C4.92487 22 0 17.0751 0 11C0 4.92487 4.92487 0 11 0C17.0751 0 22 4.92487 22 11ZM16.1611 9.72678C16.301 9.80301 16.4236 9.98457 16.468 10.1811C16.5171 10.3995 16.5269 13.4745 16.4067 13.9068C16.2322 14.5281 15.967 14.9973 15.5422 15.4319C14.9551 16.0312 14.3287 16.353 13.5306 16.4611C13.0712 16.5224 8.58898 16.5078 8.22548 16.4414C7.13264 16.2449 6.04451 15.3435 5.66136 14.1253C5.50653 13.6317 5.48964 13.2659 5.50418 10.7729C5.51636 8.78326 5.52893 8.43706 5.58041 8.22092C5.86021 7.07188 6.62649 6.17277 7.69497 5.75033C8.2746 5.51927 8.65264 5.48508 10.3573 5.50473C11.4427 5.51691 11.7669 5.53145 11.9119 5.57585C12.5163 5.75976 13.0468 6.08671 13.5207 6.57046C14.186 7.24833 14.5228 8.00204 14.5252 8.81273C14.5275 9.23518 14.5939 9.39236 14.8419 9.53737C14.9991 9.62854 15.0533 9.63836 15.5469 9.66037C15.8416 9.67294 16.1167 9.70202 16.1611 9.72678ZM10.0009 8.41741C8.80236 8.41741 8.74852 8.42488 8.55676 8.619H8.55636C8.25692 8.92119 8.409 9.50554 8.8169 9.62107C8.89314 9.64072 9.41382 9.65526 10.0646 9.65054C11.1209 9.64583 11.1873 9.64072 11.3001 9.56959C11.5087 9.43677 11.6023 9.27251 11.6023 9.03908C11.6023 8.77855 11.5017 8.61664 11.2733 8.50111C11.1158 8.41977 11.0792 8.41741 10.0009 8.41741ZM12.9018 13.5849L13.2677 13.526C13.6213 13.3248 13.685 12.8359 13.3879 12.5585C13.3584 12.5311 13.3334 12.5076 13.3059 12.4874C13.1386 12.3644 12.8807 12.3647 10.9908 12.3667C8.85148 12.3695 8.77564 12.3742 8.60116 12.5314C8.46362 12.6568 8.37285 12.9024 8.39996 13.0816C8.42668 13.2706 8.59134 13.4816 8.76581 13.5578C8.85423 13.5971 9.32579 13.6266 10.9983 13.607L12.9018 13.5849Z" fill="white"/>
</svg>
