<svg width="9" height="14" viewBox="0 0 9 14" fill="none" xmlns="http://www.w3.org/2000/svg">
<path d="M0.483612 5.95873L6.46398 0.726731C7.16761 0.109276 8.2727 0.611095 8.2727 1.54819L8.2727 12.0122C8.27288 12.2219 8.21261 12.4272 8.0991 12.6036C7.98558 12.7799 7.82365 12.9198 7.63268 13.0065C7.44171 13.0932 7.2298 13.123 7.02233 13.0923C6.81486 13.0617 6.62063 12.9718 6.46289 12.8336L0.484703 7.60164C0.367529 7.49925 0.273617 7.37297 0.209271 7.23129C0.144925 7.0896 0.111634 6.93579 0.111634 6.78019C0.111634 6.62458 0.144925 6.47077 0.209271 6.32908C0.273617 6.1874 0.367529 6.06113 0.484703 5.95873L0.483612 5.95873Z" fill="white"/>
</svg>
