<svg width="9" height="14" viewBox="0 0 9 14" fill="none" xmlns="http://www.w3.org/2000/svg">
<path d="M8.51639 5.95873L2.53602 0.726731C1.83239 0.109276 0.727295 0.611095 0.727295 1.54819L0.727296 12.0122C0.727116 12.2219 0.787391 12.4272 0.900904 12.6036C1.01442 12.7799 1.17635 12.9198 1.36732 13.0065C1.55829 13.0932 1.7702 13.123 1.97767 13.0923C2.18514 13.0617 2.37937 12.9718 2.53711 12.8336L8.5153 7.60164C8.63247 7.49925 8.72638 7.37297 8.79073 7.23129C8.85508 7.0896 8.88837 6.93579 8.88837 6.78019C8.88837 6.62458 8.85508 6.47077 8.79073 6.32908C8.72638 6.1874 8.63247 6.06113 8.5153 5.95873L8.51639 5.95873Z" fill="white"/>
</svg>
