<svg width="12" height="12" viewBox="0 0 12 12" fill="none" xmlns="http://www.w3.org/2000/svg">
<path d="M5.4793 8.25807L2.8633 5.26789C2.55458 4.91607 2.80549 4.36353 3.27403 4.36353H8.50603C8.61089 4.36344 8.71356 4.39357 8.80173 4.45033C8.8899 4.50709 8.95985 4.58805 9.00319 4.68354C9.04653 4.77903 9.06142 4.88498 9.04609 4.98871C9.03077 5.09245 8.98586 5.18956 8.91676 5.26843L6.30076 8.25753C6.24956 8.31611 6.18642 8.36307 6.11558 8.39524C6.04474 8.42741 5.96784 8.44406 5.89003 8.44406C5.81223 8.44406 5.73532 8.42741 5.66448 8.39524C5.59364 8.36307 5.5305 8.31611 5.4793 8.25753V8.25807Z" fill="white"/>
</svg>
