<svg width="16" height="16" viewBox="0 0 16 16" fill="none" xmlns="http://www.w3.org/2000/svg">
<g clip-path="url(#clip0_301_950)">
<path d="M11.8133 14.2222H3.81334C3.69547 14.2222 3.58242 14.269 3.49907 14.3523C3.41572 14.4357 3.3689 14.5487 3.3689 14.6666C3.3689 14.7845 3.41572 14.8975 3.49907 14.9809C3.58242 15.0642 3.69547 15.1111 3.81334 15.1111H11.8133C11.9312 15.1111 12.0443 15.0642 12.1276 14.9809C12.211 14.8975 12.2578 14.7845 12.2578 14.6666C12.2578 14.5487 12.211 14.4357 12.1276 14.3523C12.0443 14.269 11.9312 14.2222 11.8133 14.2222Z" fill="white"/>
<path d="M13.9999 5.93336C13.7805 5.97779 13.5571 6.00013 13.3332 6.00002H13.1066C13.2979 6.88381 13.2597 7.80188 12.9955 8.66669C12.2497 8.72318 11.4998 8.66168 10.7732 8.48447C10.7728 8.29819 10.7221 8.11548 10.6266 7.95558C11.1579 7.25856 11.575 6.48144 11.8621 5.65336C11.656 5.55228 11.4609 5.43015 11.2799 5.28891C11.0197 6.08908 10.6276 6.84015 10.1199 7.51114C9.92612 7.42907 9.71161 7.40937 9.50613 7.45477C9.30065 7.50017 9.1144 7.60841 8.97323 7.76447C8.81768 7.67558 8.66212 7.58669 8.52879 7.48447C7.63159 6.88585 6.88232 6.09098 6.33768 5.16002C6.4257 5.05087 6.48979 4.92443 6.52578 4.7889C6.56177 4.65338 6.56885 4.5118 6.54657 4.37336C7.76614 3.95994 9.07114 3.86508 10.3377 4.0978C10.2282 3.87245 10.1447 3.63537 10.0888 3.39114C8.78644 3.21453 7.46074 3.35167 6.22212 3.79114C6.08219 3.65478 5.90654 3.56079 5.71546 3.52002H5.60434C5.55101 3.33336 5.50212 3.14669 5.46212 2.95558C5.42212 2.76447 5.3999 2.59558 5.37768 2.41336C6.08751 2.02912 6.87575 1.81217 7.68222 1.77904C8.48869 1.74592 9.29206 1.89751 10.031 2.22225C10.0678 1.91644 10.1471 1.61726 10.2666 1.33336C9.31908 0.941535 8.28946 0.789922 7.26925 0.891999C6.24904 0.994077 5.26987 1.34668 4.4188 1.91846C3.56773 2.49024 2.87115 3.26346 2.39099 4.16938C1.91083 5.07531 1.66198 6.08584 1.66657 7.11114C1.66657 7.31114 1.66657 7.50669 1.69768 7.70225C1.77787 8.54076 2.02748 9.35426 2.43139 10.0934C2.83529 10.8326 3.38508 11.4821 4.04743 12.0025C4.70977 12.5229 5.47089 12.9035 6.28466 13.121C7.09842 13.3385 7.94788 13.3886 8.78156 13.2681C9.61524 13.1477 10.4158 12.8592 11.1347 12.4201C11.8535 11.9811 12.4758 11.4007 12.9637 10.714C13.4516 10.0274 13.7951 9.24885 13.9732 8.42556C14.1513 7.60227 14.1604 6.75138 13.9999 5.92447V5.93336ZM4.78212 2.78669C4.78212 2.88002 4.80879 2.9778 4.82657 3.07114C4.86657 3.26669 4.9199 3.4578 4.97323 3.64891C4.80304 3.74969 4.66606 3.89808 4.57919 4.07578C4.49232 4.25347 4.45935 4.45271 4.48434 4.64891C3.78121 5.10668 3.15306 5.67037 2.62212 6.32002C2.72839 5.61681 2.97423 4.94195 3.34517 4.33515C3.71612 3.72835 4.20469 3.20187 4.78212 2.78669ZM4.78212 9.76891C4.6078 9.8265 4.45182 9.9292 4.33004 10.0666C4.20827 10.204 4.12503 10.3712 4.08879 10.5511H3.80434C3.0866 9.69507 2.65732 8.63432 2.57768 7.52002L2.62657 7.43558C3.18311 6.57262 3.91068 5.83295 4.76434 5.26225C4.89233 5.39592 5.05407 5.4925 5.23245 5.54179C5.41083 5.59108 5.59922 5.59124 5.77768 5.54225C6.37215 6.54684 7.18476 7.40502 8.15546 8.05336C8.33768 8.17336 8.52434 8.28447 8.71101 8.39113C8.69608 8.56112 8.72356 8.73216 8.79101 8.88891C7.97766 9.53478 7.03948 10.0054 6.03546 10.2711C5.91902 10.0536 5.72904 9.88453 5.49944 9.79416C5.26985 9.70379 5.0156 9.69799 4.78212 9.7778V9.76891ZM7.89323 12.4356C6.98933 12.4358 6.10041 12.2048 5.31101 11.7645L5.43545 11.7378C5.61231 11.6798 5.77036 11.5753 5.89309 11.4354C6.01583 11.2955 6.09876 11.1252 6.13323 10.9422C7.26967 10.6524 8.33063 10.122 9.24434 9.38669C9.46138 9.51353 9.71769 9.55556 9.96387 9.50468C10.2101 9.45381 10.4287 9.31362 10.5777 9.11114C11.2047 9.27415 11.8498 9.35777 12.4977 9.36002H12.7332C12.3041 10.2827 11.62 11.0635 10.7616 11.61C9.90324 12.1565 8.9064 12.4461 7.88879 12.4445L7.89323 12.4356Z" fill="white"/>
<path d="M13.3333 4.88878C14.5606 4.88878 15.5555 3.89386 15.5555 2.66656C15.5555 1.43926 14.5606 0.444336 13.3333 0.444336C12.106 0.444336 11.1111 1.43926 11.1111 2.66656C11.1111 3.89386 12.106 4.88878 13.3333 4.88878Z" fill="white"/>
</g>
<defs>
<clipPath id="clip0_301_950">
<rect width="16" height="16" fill="white"/>
</clipPath>
</defs>
</svg>
