<svg width="26" height="26" viewBox="0 0 26 26" fill="none" xmlns="http://www.w3.org/2000/svg">
<path fill-rule="evenodd" clip-rule="evenodd" d="M3.90002 9.10005C3.90002 8.75527 4.03699 8.42461 4.28079 8.18081C4.52458 7.93701 4.85524 7.80005 5.20002 7.80005H20.8C21.1448 7.80005 21.4755 7.93701 21.7193 8.18081C21.9631 8.42461 22.1 8.75527 22.1 9.10005C22.1 9.44483 21.9631 9.77549 21.7193 10.0193C21.4755 10.2631 21.1448 10.4 20.8 10.4H5.20002C4.85524 10.4 4.52458 10.2631 4.28079 10.0193C4.03699 9.77549 3.90002 9.44483 3.90002 9.10005ZM3.90002 16.9C3.90002 16.5553 4.03699 16.2246 4.28079 15.9808C4.52458 15.737 4.85524 15.6 5.20002 15.6H20.8C21.1448 15.6 21.4755 15.737 21.7193 15.9808C21.9631 16.2246 22.1 16.5553 22.1 16.9C22.1 17.2448 21.9631 17.5755 21.7193 17.8193C21.4755 18.0631 21.1448 18.2 20.8 18.2H5.20002C4.85524 18.2 4.52458 18.0631 4.28079 17.8193C4.03699 17.5755 3.90002 17.2448 3.90002 16.9Z" fill="white"/>
</svg>
