<svg width="22" height="22" viewBox="0 0 22 22" fill="none" xmlns="http://www.w3.org/2000/svg">
<path opacity="0.7" fill-rule="evenodd" clip-rule="evenodd" d="M22 11C22 17.0751 17.0751 22 11 22C4.92487 22 0 17.0751 0 11C0 4.92487 4.92487 0 11 0C17.0751 0 22 4.92487 22 11ZM12.6445 11C12.6445 11.913 11.913 12.65 11 12.65C10.087 12.65 9.35 11.913 9.35 11V7.70001C9.35 6.78701 10.087 6.05001 11 6.05001C11.913 6.05001 12.65 6.78701 12.65 7.70001L12.6445 11ZM11 13.805C12.518 13.805 13.915 12.65 13.915 11H14.85C14.85 12.881 13.354 14.432 11.55 14.696V16.5H10.45V14.696C8.646 14.4265 7.15 12.881 7.15 11H8.085C8.085 12.65 9.482 13.805 11 13.805Z" fill="white"/>
</svg>
